<svg xmlns="http://www.w3.org/2000/svg" xmlns:xlink="http://www.w3.org/1999/xlink" width="1000" zoomAndPan="magnify" viewBox="0 0 750 749.999995" height="1000" preserveAspectRatio="xMidYMid meet" version="1.0"><defs><clipPath id="da98189349"><path d="M 50.070312 50.070312 L 699.570312 50.070312 L 699.570312 699.570312 L 50.070312 699.570312 Z M 50.070312 50.070312 " clip-rule="nonzero"/></clipPath><clipPath id="91408bd4d2"><path d="M 374.996094 50.070312 C 195.542969 50.070312 50.070312 195.542969 50.070312 374.996094 C 50.070312 554.449219 195.542969 699.921875 374.996094 699.921875 C 554.449219 699.921875 699.921875 554.449219 699.921875 374.996094 C 699.921875 195.542969 554.449219 50.070312 374.996094 50.070312 Z M 374.996094 50.070312 " clip-rule="nonzero"/></clipPath></defs><rect x="-75" width="900" fill="#ffffff" y="-74.999999" height="899.999994" fill-opacity="1"/><rect x="-75" width="900" fill="#fef9ee" y="-74.999999" height="899.999994" fill-opacity="1"/><g clip-path="url(#da98189349)"><g clip-path="url(#91408bd4d2)"><path stroke-linecap="butt" transform="matrix(0.75, 0, 0, 0.75, 50.070223, 50.070241)" fill="none" stroke-linejoin="miter" d="M 433.234515 0.0000956535 C 193.96367 0.0000956535 0.000118787 193.963647 0.000118787 433.234492 C 0.000118787 672.505337 193.96367 866.468888 433.234515 866.468888 C 672.50536 866.468888 866.468911 672.505337 866.468911 433.234492 C 866.468911 193.963647 672.50536 0.0000956535 433.234515 0.0000956535 Z M 433.234515 0.0000956535 " stroke="#3c4454" stroke-width="80" stroke-opacity="1" stroke-miterlimit="4"/></g></g><path stroke-linecap="butt" transform="matrix(0.75, 0, 0, 0.75, 50.070223, 360.000002)" fill="none" stroke-linejoin="miter" d="M 0.000118787 19.999998 L 866.479328 19.999998 " stroke="#3c4454" stroke-width="40" stroke-opacity="1" stroke-miterlimit="4"/><path stroke-linecap="butt" transform="matrix(0.75, 0.000000000000000132, -0.000000000000000132, 0.75, 425.798982, 262.500007)" fill="none" stroke-linejoin="miter" d="M 0.00239913 19.999991 L 321.79929 19.999991 " stroke="#3c4454" stroke-width="40" stroke-opacity="1" stroke-miterlimit="4"/><path stroke-linecap="butt" transform="matrix(-0.75, -0.000000001309, 0.000000001309, -0.75, 319.347642, 487.499996)" fill="none" stroke-linejoin="miter" d="M -0.0000185823 19.999996 L 321.80208 19.999995 " stroke="#3c4454" stroke-width="40" stroke-opacity="1" stroke-miterlimit="4"/><path stroke-linecap="butt" transform="matrix(0, -0.75, 0.75, 0, 425.895414, 277.496579)" fill="none" stroke-linejoin="miter" d="M 0.000647369 19.998824 L 290.667328 19.998824 " stroke="#3c4454" stroke-width="40" stroke-opacity="1" stroke-miterlimit="4"/><path stroke-linecap="butt" transform="matrix(0, 0.75, -0.75, 0, 319.24695, 472.503429)" fill="none" stroke-linejoin="miter" d="M 0.000636369 20.001143 L 290.667317 20.001143 " stroke="#3c4454" stroke-width="40" stroke-opacity="1" stroke-miterlimit="4"/><path stroke-linecap="butt" transform="matrix(0, -0.75, 0.75, 0, 294.097664, 277.496579)" fill="none" stroke-linejoin="miter" d="M 0.000647369 19.999991 L 290.667328 19.999991 " stroke="#3c4454" stroke-width="40" stroke-opacity="1" stroke-miterlimit="4"/><path stroke-linecap="butt" transform="matrix(0, 0.75, -0.75, 0, 451.044725, 472.503429)" fill="none" stroke-linejoin="miter" d="M 0.000636369 20.002342 L 290.667317 20.002342 " stroke="#3c4454" stroke-width="40" stroke-opacity="1" stroke-miterlimit="4"/><path stroke-linecap="butt" transform="matrix(0.75, 0.000000000000000132, -0.000000000000000132, 0.75, 82.850696, 262.500007)" fill="none" stroke-linejoin="miter" d="M 0.00115505 19.999991 L 321.798046 19.999991 " stroke="#3c4454" stroke-width="40" stroke-opacity="1" stroke-miterlimit="4"/><path stroke-linecap="butt" transform="matrix(-0.75, -0.000000001309, 0.000000001309, -0.75, 662.295906, 487.499996)" fill="none" stroke-linejoin="miter" d="M -0.00129147 19.999996 L 321.800808 19.999995 " stroke="#3c4454" stroke-width="40" stroke-opacity="1" stroke-miterlimit="4"/></svg>